<svg xmlns="http://www.w3.org/2000/svg" viewBox="0 0 107.37 87.85"><defs><style>.cls-1{fill:#4caf50;}.cls-2{fill:#43a047;}.cls-3{fill:#fff;}</style></defs><title>Asset 7@2</title><g id="Layer_2" data-name="Layer 2"><g id="Layer_1-2" data-name="Layer 1"><rect class="cls-1" y="82.97" width="107.37" height="4.88"/><rect class="cls-1" x="78.09" y="34.16" width="12.2" height="39.04"/><rect class="cls-1" x="17.08" y="34.16" width="12.2" height="39.04"/><polygon class="cls-1" points="100.05 29.28 7.32 29.28 7.32 21.96 53.69 0 100.05 21.96 100.05 29.28"/><rect class="cls-1" x="9.76" y="73.21" width="87.85" height="4.88"/><rect class="cls-2" x="73.21" y="29.28" width="21.96" height="4.88"/><rect class="cls-2" x="12.2" y="29.28" width="21.96" height="4.88"/><rect class="cls-2" x="4.88" y="78.09" width="97.61" height="4.88"/><circle class="cls-2" cx="53.69" cy="53.69" r="4.88"/><path class="cls-3" d="M38.38,15.08V14.6h1.68v.66h-.12ZM40.06,22v.66H38.38v-.48L39.94,22Zm-.54-3.66c0-1.24,0-2.48,0-3.72h1.15c0,1.21,0,2.46,0,3.72v.42c0,1.42,0,2.66,0,3.9H39.49c0-1.21,0-2.46,0-3.72Zm.54-.11h1.19c1.48,0,2.11-.47,2.11-1.57s-.63-1.49-1.87-1.49H40.06V14.6h1.78c1.64,0,2.6.82,2.6,2,0,.93-.65,1.76-2.24,1.95v-.1c1.87.15,2.64,1,2.64,2s-.9,2.2-3.17,2.2H40.06v-.55h1.32c1.56,0,2.32-.59,2.32-1.65s-.73-1.68-2.41-1.68H40.06Z"/><path class="cls-3" d="M45.08,22.16l1.2-.18h.24l1.32.18v.48H45.08Zm3.57-7.62h.72l2.76,8.1H51L48.6,15.45h.28l-2.45,7.19h-.56Zm-1.4,4.92h3.24l.19.55H47.06Zm2.36,2.7L51.12,22h.24l1.49.18v.48H49.61Z"/><path class="cls-3" d="M53.33,22.16,54.59,22h.24l1.38.18v.48H53.33ZM54.09,15l.74.29-1.44-.18V14.6h1.8l5,6.85v1.27h-.39Zm.26-.37.6.48v7.56h-.6Zm4,0h2.88v.48l-1.2.18h-.24l-1.44-.18Zm1.26,0h.6v8.12l-.6-.6Z"/><path class="cls-3" d="M62.09,15.08V14.6h3.36v.48l-1.56.18h-.24Zm1.8,6.9,1.56.18v.48H62.09v-.48L63.65,22Zm-.66-3.66c0-1.24,0-2.48,0-3.72h1.12c0,1.21,0,2.46,0,3.72v.91c0,.93,0,2.17,0,3.41H63.19c0-1.21,0-2.46,0-3.72Zm.51,1.42,4.2-5.14h.72l-4.92,5.91ZM66,17.42l2.9,5.22H67.74l-2.4-4.48Zm.45,4.74L67.84,22H68l1.44.18v.48h-3Zm.13-7.08V14.6H69.3v.48L68,15.26l-.24.06Z"/></g></g></svg>