<svg xmlns="http://www.w3.org/2000/svg" viewBox="0 0 72.97 77.02"><defs><style>.cls-1{fill:#4caf50;}.cls-2{fill:#4daf4e;}.cls-3{fill:#fff;}</style></defs><title>Asset 6@2</title><g id="Layer_2" data-name="Layer 2"><g id="Layer_1-2" data-name="Layer 1"><path class="cls-1" d="M64.86,0H8.11A8.12,8.12,0,0,0,0,8.11L34.87,47.58l13.57,1.24a.52.52,0,0,1,.47.56l-.23,2.84a.51.51,0,0,1-.51.48H39.11a46.13,46.13,0,0,1,7.65,16.21H34.93C28.37,56.2,15.25,44.06,0,32.1V64.86A8.11,8.11,0,0,0,8.11,73H27.9l2,4H56.75L56,73h8.89A8.11,8.11,0,0,0,73,64.86V8.11A8.11,8.11,0,0,0,64.86,0Z"/><path class="cls-1" d="M45.05,70.57s-2.63-6.85-3.77-8.78"/><path class="cls-2" d="M44.82,70.66c0-.06-2.64-6.85-3.76-8.74l.43-.25c1.14,1.92,3.69,8.53,3.8,8.81Z"/><path class="cls-1" d="M41.93,70.8S39.29,64,38.15,62"/><path class="cls-2" d="M41.69,70.89c0-.07-2.64-6.85-3.76-8.74l.43-.26c1.15,1.93,3.69,8.54,3.8,8.82Z"/><path class="cls-1" d="M39.14,71s-2.63-6.85-3.78-8.78"/><path class="cls-2" d="M38.91,71.09c0-.07-2.64-6.85-3.76-8.74l.43-.26c1.14,1.93,3.69,8.54,3.79,8.82Z"/><path class="cls-3" d="M28.41,15v.66l-.75.16.3-1.77h.73l0,1.74a5.05,5.05,0,0,1-2.43.57,3.94,3.94,0,0,1-4-4.19,4,4,0,0,1,4-4.2,4.73,4.73,0,0,1,2.32.57l0,1.74h-.73l-.3-1.77.75.17v.73a2.8,2.8,0,0,0-1.94-.84c-1.61,0-2.92,1.26-2.92,3.6s1.17,3.59,2.84,3.59A3.36,3.36,0,0,0,28.41,15Z"/><path class="cls-3" d="M29.24,15.73l1.2-.18h.24l1.32.18v.48H29.24Zm3.57-7.61h.72l2.76,8.09H35.17L32.76,9H33l-2.45,7.18H30ZM31.41,13h3.24l.19.55H31.22Zm2.36,2.69,1.51-.18h.24l1.49.18v.48H33.77Z"/><path class="cls-3" d="M41.8,14.33c0-.78-.47-1.13-1.51-1.53l-.46-.18c-1.22-.48-2.06-1.18-2.06-2.4C37.77,8.84,38.93,8,40.46,8a3.2,3.2,0,0,1,1.95.63l-.07,1.56h-.72l-.34-1.81.77.4v.6a2.16,2.16,0,0,0-1.67-.78c-.93,0-1.64.47-1.64,1.36s.49,1.21,1.37,1.54l.46.18c1.59.61,2.2,1.31,2.2,2.44,0,1.41-1.19,2.27-2.83,2.27a4.58,4.58,0,0,1-2.33-.63l.07-1.68h.72l.32,1.85-.78-.34V15a2.9,2.9,0,0,0,2,.78C41,15.79,41.8,15.27,41.8,14.33Z"/><path class="cls-3" d="M43.67,8.66V8.18H47v.48l-1.56.18h-.24Zm1.8,6.89,1.56.18v.48H43.67v-.48l1.56-.18Zm-.66-3.65c0-1.24,0-2.49,0-3.72h1.15c0,1.21,0,2.46,0,3.72v.36c0,1.47,0,2.72,0,4H44.78c0-1.21,0-2.46,0-3.71Zm.54.48v-.56h5v.56Zm3.36-3.72V8.18h3.36v.48l-1.56.18h-.24Zm1.8,6.89,1.56.18v.48H48.71v-.48l1.56-.18Zm-.66-3.65c0-1.24,0-2.49,0-3.72H51c0,1.21,0,2.46,0,3.72v.6c0,1.23,0,2.48,0,3.71H49.81c0-1.21,0-2.46,0-4Z"/></g></g></svg>