<svg xmlns="http://www.w3.org/2000/svg" xmlns:xlink="http://www.w3.org/1999/xlink" width="80" height="73" viewBox="0 0 80 73"><defs><path id="ftnha" d="M119 150.11h12.63v16.44H119z"/><path id="ftnhe" d="M119 165.24l2.03-1.64a83.88 83.88 0 0 0 4.01-3.37c.93-.85 1.68-1.73 2.26-2.65.58-.92.87-1.87.87-2.85 0-1.16-.34-2.06-1.03-2.69a3.62 3.62 0 0 0-2.54-.94c-1.18 0-2.2.36-3.03 1.06-.84.71-1.4 1.74-1.68 3.1h-.69c0-.82.04-1.48.11-1.97.08-.5.27-.9.58-1.25.53-.54 1.3-1 2.3-1.37a9.1 9.1 0 0 1 3.18-.56c1.58 0 2.97.33 4.16 1 1.19.67 1.78 1.88 1.78 3.62 0 1.03-.32 2.01-.95 2.95-.64.93-1.42 1.8-2.35 2.58-.92.8-2.2 1.77-3.81 2.95l-3.09 2.34h6.32c1.16 0 2.04-.21 2.65-.65.61-.43.92-1.08.92-1.93h.63v1.64c0 1.3-.81 1.94-2.43 1.94H119z"/><path id="ftnhf" d="M136.52 154.18c0-.82-.13-1.44-.4-1.83-.27-.4-.8-.6-1.61-.6h-.49v-.56h7.59c3.76 0 6.6.7 8.55 2.1a6.78 6.78 0 0 1 2.92 5.83c0 1.6-.4 3.02-1.22 4.25a7.92 7.92 0 0 1-3.64 2.86 15.03 15.03 0 0 1-5.86 1.02h-5.84zm9.53 11.3c1.12-.57 2-1.4 2.63-2.48.63-1.08.95-2.34.95-3.78a7.3 7.3 0 0 0-.95-3.75 6.49 6.49 0 0 0-2.63-2.52 8.1 8.1 0 0 0-3.84-.88c-.82 0-1.73.11-2.73.34v13.66c1.02.2 1.95.3 2.8.3 1.39 0 2.65-.3 3.77-.88z"/><path id="ftnhg" d="M156.22 154.18c0-.82-.14-1.44-.41-1.83-.28-.4-.83-.6-1.66-.6h-.5v-.56h11.93c1.67 0 2.5.65 2.5 1.95v1.9h-.67c0-1.9-1.23-2.85-3.7-2.85h-4.5v6.4h6.6v1h-6.6v7.66h-3z"/><path id="ftnhh" d="M179.18 164.11l-.72-1.52h-7.87l-2.31 4.54h-1.34l8.1-15.94h.97l6.3 12.92c.44.87.88 1.49 1.33 1.85a3.2 3.2 0 0 0 1.78.64v.53c-.34.08-.74.12-1.2.12-2.41 0-4.1-1.05-5.04-3.14zm-1.3-2.5l-3.33-6.85-3.5 6.85z"/><path id="ftnhb" d="M186.01 151.22h13.11v16.03h-13.11z"/><path id="ftnhj" d="M188.87 166.6a9.2 9.2 0 0 1-2.86-1.87l.54-.5a7.47 7.47 0 0 0 5.23 2.05c1.22 0 2.22-.32 3.02-.98.79-.65 1.18-1.61 1.18-2.88 0-.79-.18-1.46-.53-2a3.37 3.37 0 0 0-1.37-1.24 4.02 4.02 0 0 0-1.78-.42c-.73 0-1.28.03-1.66.07-.38.05-.94.15-1.69.31l-.71-.97 7.77-5.98h-5.26c-1.16 0-2.05.2-2.65.63a2.15 2.15 0 0 0-.92 1.89h-.66v-1.6c0-1.26.81-1.89 2.43-1.89h9.26v.97l-7.51 5.8c.57-.13 1.36-.2 2.37-.2.8 0 1.66.14 2.6.42a5.6 5.6 0 0 1 2.42 1.45c.69.69 1.03 1.61 1.03 2.76 0 1.24-.36 2.22-1.08 2.94a5.67 5.67 0 0 1-2.56 1.49 10.81 10.81 0 0 1-6.61-.25"/><path id="ftnhk" d="M189.82 122.23c0 1.6-1.27 2.9-2.83 2.9a2.87 2.87 0 0 1-2.83-2.9c0-1.6 1.27-2.91 2.83-2.91s2.83 1.3 2.83 2.9"/><path id="ftnhc" d="M126 95.1h69.96V141H126z"/><path id="ftnhm" d="M186.84 117.36a4.68 4.68 0 0 0-4.58 4.74c0 2.64 2.1 4.77 4.66 4.74l5.43-.1c2 0 3.61 1.65 3.61 3.7v4.38a6.1 6.1 0 0 1-6.01 6.18H132a6.1 6.1 0 0 1-6.01-6.18v-33.55a6.1 6.1 0 0 1 6.01-6.17h57.94a6.1 6.1 0 0 1 6.01 6.17v12.28c0 2.05-1.62 3.7-3.61 3.7zM139.4 104.3l.63 1.65h1.12l.63-1.65zm2.88 2.88c0-.31-.24-.56-.54-.56h-2.32c-.3 0-.54.25-.54.56v2.37c0 .31.24.56.54.56h2.32c.3 0 .54-.25.54-.56zm-5.66-1.23h2.71l-.62-1.65h-.82c-.7 0-1.27.58-1.27 1.3zm0 2.08h1.67v-1.26l.01-.15h-1.68zm0 2.08h1.68a.76.76 0 0 1-.01-.15v-1.26h-1.67zm2.71.67h-2.71v.35c0 .72.57 1.3 1.27 1.3h.82zm2.45 1.65l-.63-1.65h-1.12l-.63 1.65zm2.76-1.65h-2.71l.62 1.65h.82c.7 0 1.27-.58 1.27-1.3zm0-2.08h-1.67v1.26l-.01.15h1.68zm0-2.08h-1.68l.01.15v1.26h1.67zm0-1.02c0-.72-.57-1.3-1.27-1.3h-.82l-.62 1.65h2.71z"/><clipPath id="ftnhd"><use xlink:href="#ftnha"/></clipPath><clipPath id="ftnhi"><use xlink:href="#ftnhb"/></clipPath><clipPath id="ftnhl"><use xlink:href="#ftnhc"/></clipPath></defs><g><g transform="translate(-119 -95)"><g><g/><g clip-path="url(#ftnhd)"><use fill="#fff" xlink:href="#ftnhe"/></g></g><g><use fill="#fff" xlink:href="#ftnhf"/></g><g><use fill="#fff" xlink:href="#ftnhg"/></g><g><use fill="#fff" xlink:href="#ftnhh"/></g><g><g/><g clip-path="url(#ftnhi)"><use fill="#fff" xlink:href="#ftnhj"/></g></g></g><g transform="translate(-119 -95)"><g><use fill="#fff" xlink:href="#ftnhk"/></g><g><g/><g clip-path="url(#ftnhl)"><use fill="#fff" xlink:href="#ftnhm"/></g></g></g></g></svg>