<svg xmlns="http://www.w3.org/2000/svg" xmlns:xlink="http://www.w3.org/1999/xlink" width="264" height="104" viewBox="0 0 264 104"><defs><path id="l1iaa" d="M477 436.11h226.95v65.9H477z"/><path id="l1iac" d="M703.95 495.4c0 3.65-2.92 6.6-6.53 6.6H483.54a6.58 6.58 0 0 1-6.54-6.6v-52.68a6.58 6.58 0 0 1 6.54-6.61h213.87c3.61 0 6.54 2.96 6.54 6.61z"/><path id="l1iad" d="M703.95 495.4c0 3.65-2.92 6.6-6.53 6.6H483.53a6.58 6.58 0 0 1-6.54-6.6v-52.68a6.58 6.58 0 0 1 6.54-6.61h213.87c3.61 0 6.54 2.96 6.54 6.61z"/><path id="l1iae" d="M527.69 470.4c-.05-5.56 4.38-8.26 4.58-8.39a9.73 9.73 0 0 0-7.76-4.36c-3.27-.36-6.43 2.03-8.1 2.03-1.69 0-4.25-2-7.01-1.94-3.55.06-6.87 2.2-8.7 5.52-3.75 6.76-.95 16.7 2.65 22.17 1.8 2.68 3.91 5.67 6.67 5.57 2.7-.12 3.7-1.79 6.95-1.79 3.23 0 4.17 1.79 6.98 1.72 2.9-.05 4.72-2.69 6.46-5.4a22.52 22.52 0 0 0 2.95-6.24 9.62 9.62 0 0 1-5.67-8.9m-5.31-16.34a10.1 10.1 0 0 0 2.16-7.05c-2.1.1-4.72 1.5-6.23 3.35-1.34 1.63-2.53 4.3-2.23 6.8 2.36.18 4.78-1.24 6.3-3.1"/><path id="l1iaf" d="M567.76 486.25h-3.79l-2.07-6.36h-7.22l-1.98 6.36h-3.69l7.15-21.64h4.42zm-6.5-9.02l-1.87-5.65c-.2-.58-.57-1.94-1.12-4.08h-.07c-.22.92-.57 2.28-1.05 4.08l-1.85 5.65zm22.64 7.32a6.59 6.59 0 0 1-4.94 2.06c-2.12 0-3.65-.74-4.57-2.22v8.2h-3.56v-16.81c0-1.67-.05-3.38-.13-5.14h3.13l.2 2.48h.06c1.19-1.87 2.99-2.8 5.4-2.8a6 6 0 0 1 4.74 2.19c1.26 1.45 1.89 3.37 1.89 5.75 0 2.65-.74 4.75-2.22 6.3zm-2.47-9.93a3.67 3.67 0 0 0-3.1-1.54 3.93 3.93 0 0 0-3.78 3.08c-.1.35-.15.7-.16 1.06v2.6c0 1.14.35 2.1 1.07 2.88a3.6 3.6 0 0 0 2.78 1.18c1.34 0 2.38-.5 3.12-1.51.75-1.01 1.12-2.34 1.12-3.99 0-1.52-.35-2.77-1.05-3.76zm20.89 9.93a6.6 6.6 0 0 1-4.94 2.06c-2.12 0-3.65-.74-4.57-2.22v8.2h-3.56v-16.81c0-1.67-.05-3.38-.13-5.14h3.13l.2 2.48h.06c1.19-1.87 2.99-2.8 5.4-2.8 1.9 0 3.47.73 4.74 2.19 1.25 1.45 1.89 3.37 1.89 5.75 0 2.65-.74 4.75-2.22 6.3zm-2.46-9.93a3.67 3.67 0 0 0-3.1-1.54 3.93 3.93 0 0 0-3.79 3.08c-.1.44-.17.79-.17 1.06v2.6c0 1.14.36 2.1 1.07 2.88a3.6 3.6 0 0 0 2.8 1.18c1.33 0 2.38-.5 3.12-1.51.75-1.01 1.12-2.34 1.12-3.99 0-1.52-.35-2.77-1.05-3.76zm23.3 10.06c-1.44 1.26-3.46 1.9-6.05 1.9-2.39 0-4.3-.46-5.75-1.36l.82-2.89a10.1 10.1 0 0 0 5.14 1.35c1.34 0 2.39-.3 3.13-.88a2.86 2.86 0 0 0 1.12-2.36c0-.88-.3-1.61-.92-2.21a8.63 8.63 0 0 0-3.06-1.67c-3.9-1.42-5.84-3.48-5.84-6.2 0-1.78.69-3.23 2.06-4.37 1.37-1.13 3.2-1.7 5.46-1.7 2.02 0 3.7.34 5.04 1.03l-.9 2.82a9 9 0 0 0-4.26-1c-1.26 0-2.24.31-2.95.9-.59.54-.9 1.2-.9 1.97 0 .85.35 1.56 1.03 2.12.6.51 1.67 1.07 3.23 1.67 1.91.75 3.32 1.62 4.22 2.63a5.4 5.4 0 0 1 1.36 3.75c0 1.84-.67 3.34-1.98 4.5zm13.77-11.43h-3.92v7.58c0 1.93.69 2.9 2.07 2.9a6.4 6.4 0 0 0 1.58-.17l.1 2.63c-.7.26-1.62.39-2.76.39-1.4 0-2.5-.42-3.3-1.26-.79-.83-1.19-2.23-1.19-4.2v-7.88h-2.33v-2.6h2.33v-2.86l3.5-1.03v3.9h3.92zm15.55 10.98a7.62 7.62 0 0 1-5.86 2.37 7.26 7.26 0 0 1-5.62-2.27 8.17 8.17 0 0 1-2.1-5.75c0-2.42.73-4.4 2.16-5.94 1.44-1.54 3.38-2.31 5.82-2.31 2.35 0 4.24.76 5.67 2.28a8.07 8.07 0 0 1 2.04 5.7c0 2.4-.7 4.38-2.1 5.92zm-2.53-9.51a3.54 3.54 0 0 0-3.2-1.86c-1.42 0-2.52.62-3.26 1.86a6.97 6.97 0 0 0-.96 3.74c0 1.44.32 2.67.96 3.69a3.6 3.6 0 0 0 3.23 1.86c1.36 0 2.43-.63 3.2-1.9.65-1.04.98-2.28.98-3.71 0-1.43-.31-2.66-.95-3.68zm16.21-1.02c-.37-.07-.74-.1-1.12-.1-1.25 0-2.22.46-2.9 1.38-.59.82-.89 1.85-.89 3.09v8.2h-3.56v-10.7a107 107 0 0 0-.1-4.92h3.1l.13 2.98h.1a5.36 5.36 0 0 1 1.78-2.47 4.37 4.37 0 0 1 2.57-.84c.33 0 .63.02.89.07zm15.8 5.58h-10.69a4.47 4.47 0 0 0 1.55 3.54 5.4 5.4 0 0 0 3.5 1.09c1.58 0 3.02-.25 4.32-.74l.56 2.4c-1.52.65-3.3.97-5.37.97-2.49 0-4.44-.71-5.86-2.13-1.42-1.43-2.13-3.34-2.13-5.73 0-2.36.66-4.32 1.99-5.88a6.9 6.9 0 0 1 5.6-2.5c2.3 0 4.06.83 5.24 2.5a8.26 8.26 0 0 1 1.42 4.9c0 .54-.04 1.06-.13 1.58zm-3.27-2.46a4.61 4.61 0 0 0-.69-2.68c-.61-.96-1.56-1.45-2.84-1.45a3.4 3.4 0 0 0-2.83 1.42c-.6.75-.95 1.65-1.06 2.7z"/><path id="l1iag" d="M550.58 457.79v-10.12a20.2 20.2 0 0 1 2.99-.21c4.05 0 5.91 1.89 5.91 4.97 0 3.56-2.2 5.48-6.36 5.48-.98 0-1.83-.04-2.54-.12zm1.73-8.93v7.7c.21.03.61.05 1.18.05 2.65 0 4.16-1.44 4.16-4.13 0-2.4-1.37-3.72-3.94-3.72-.55 0-1.01.03-1.4.1zm9.22 5.32c0-2.3 1.51-3.93 3.9-3.93 2.24 0 3.75 1.55 3.75 3.81 0 2.32-1.56 3.94-3.89 3.94-2.28 0-3.76-1.62-3.76-3.82zm3.83-2.72c-1.26 0-2.06 1.11-2.06 2.67 0 1.53.82 2.65 2.04 2.65 1.22 0 2.04-1.2 2.04-2.68 0-1.5-.8-2.64-2.02-2.64zm16.83-1.05l-2.44 7.42h-1.6l-1-3.22c-.25-.8-.46-1.6-.63-2.4h-.03c-.13.8-.37 1.62-.63 2.4l-1.08 3.22h-1.6l-2.3-7.42h1.78l.89 3.53c.2.84.38 1.63.53 2.38h.03c.13-.62.33-1.4.64-2.37l1.11-3.54h1.41l1.07 3.47c.25.84.46 1.66.62 2.44h.05c.11-.76.29-1.57.53-2.44l.95-3.47zm7.25 7.42v-4.26c0-1.31-.53-1.97-1.57-1.97-1.03 0-1.73.84-1.73 1.82v4.41h-1.74v-5.3c0-.66-.01-1.36-.06-2.12h1.52l.08 1.14h.05c.47-.8 1.41-1.3 2.47-1.3 1.64 0 2.71 1.2 2.71 3.14v4.44zm4.8-10.83h1.73v10.83h-1.74zm4.3 7.18c0-2.3 1.5-3.93 3.88-3.93 2.25 0 3.76 1.55 3.76 3.81 0 2.32-1.56 3.94-3.88 3.94-2.28 0-3.77-1.62-3.77-3.82zm1.76-.05c0 1.53.82 2.65 2.04 2.65 1.22 0 2.04-1.2 2.04-2.68 0-1.5-.8-2.64-2.02-2.64-1.25 0-2.06 1.11-2.06 2.67zm12.72 3.7l-.12-.85h-.05a2.72 2.72 0 0 1-2.28 1.02c-1.4 0-2.4-.93-2.4-2.19 0-1.83 1.68-2.78 4.57-2.78v-.13c0-.98-.54-1.47-1.62-1.47a3.8 3.8 0 0 0-2.04.55l-.35-1.08a5.2 5.2 0 0 1 2.68-.65c2.04 0 3.07 1.03 3.07 3.08v2.73c0 .75.03 1.33.1 1.77zm-.22-3.7c-1.94 0-2.9.45-2.9 1.5 0 .78.5 1.16 1.19 1.16.88 0 1.7-.64 1.7-1.51zm10.1 3.7l-.08-1.19h-.05c-.5.9-1.33 1.36-2.5 1.36-1.89 0-3.28-1.57-3.28-3.79 0-2.32 1.45-3.96 3.42-3.96 1.04 0 1.78.34 2.2 1.01h.04V447h1.73v8.83c0 .72.02 1.4.07 2zm-.25-4.37c0-1.04-.73-1.92-1.83-1.92-1.29 0-2.07 1.08-2.07 2.6 0 1.5.81 2.53 2.03 2.53 1.1 0 1.87-.9 1.87-1.97zm8.99.72c0-2.3 1.5-3.93 3.88-3.93 2.26 0 3.77 1.55 3.77 3.81 0 2.32-1.56 3.94-3.9 3.94-2.27 0-3.75-1.62-3.75-3.82zm1.77-.05c0 1.53.81 2.65 2.03 2.65 1.22 0 2.03-1.2 2.03-2.68 0-1.5-.8-2.64-2.01-2.64-1.25 0-2.05 1.11-2.05 2.67zm15.2 3.7h-1.73v-4.26c0-1.31-.53-1.97-1.57-1.97-1.03 0-1.74.84-1.74 1.82v4.41h-1.74v-5.3c0-.66-.01-1.36-.06-2.12h1.53l.08 1.14h.05c.46-.8 1.41-1.3 2.47-1.3 1.64 0 2.72 1.2 2.72 3.13zm11.68-6.19h-1.9v3.61c0 .92.33 1.38 1 1.38.3 0 .57-.04.77-.08l.05 1.25c-.34.12-.79.19-1.35.19-1.36 0-2.18-.72-2.18-2.6v-3.75h-1.14v-1.23h1.14v-1.36l1.7-.5v1.86h1.91zm9.19 6.2h-1.74v-4.24c0-1.33-.52-2-1.57-2-.9 0-1.74.58-1.74 1.76v4.47h-1.73V447h1.73v4.46h.04c.54-.8 1.34-1.2 2.35-1.2 1.65 0 2.66 1.21 2.66 3.16zm4.2-3.32c.04 1.4 1.01 2.2 2.46 2.2.77 0 1.48-.13 2.1-.36l.28 1.15c-.74.3-1.61.46-2.62.46-2.44 0-3.89-1.47-3.89-3.74 0-2.28 1.48-4 3.7-4 1.99 0 3.24 1.41 3.24 3.54.01.25 0 .5-.06.75zm3.63-1.18c0-1.15-.61-1.96-1.72-1.96-1 0-1.8.83-1.9 1.96z"/><clipPath id="l1iab"><use xlink:href="#l1iaa"/></clipPath></defs><g><g transform="translate(-459 -421)"><g><g/><g clip-path="url(#l1iab)"><use fill="#fff" xlink:href="#l1iac"/></g></g><g><g><use fill="#fff" xlink:href="#l1iad"/></g></g><g><use xlink:href="#l1iae"/></g><g><use xlink:href="#l1iaf"/></g><g><use xlink:href="#l1iag"/></g></g></g></svg>