<svg xmlns="http://www.w3.org/2000/svg" xmlns:xlink="http://www.w3.org/1999/xlink" width="268" height="104" viewBox="0 0 268 104"><defs><path id="xc3ma" d="M732 436.11h230.95v65.9H732z"/><path id="xc3md" d="M962.95 495.4c0 3.65-2.98 6.6-6.65 6.6H738.66a6.63 6.63 0 0 1-6.66-6.6v-52.68a6.64 6.64 0 0 1 6.66-6.61h217.63a6.63 6.63 0 0 1 6.66 6.61z"/><path id="xc3mf" d="M811.35 456c0 1.41-.34 2.66-1.2 3.54a4.9 4.9 0 0 1-3.74 1.6 4.9 4.9 0 0 1-3.74-1.6 5.33 5.33 0 0 1-1.53-3.9c0-1.6.51-2.84 1.53-3.9a4.9 4.9 0 0 1 3.74-1.6c.68 0 1.36.18 2.04.53.68.36 1.2.71 1.54 1.24l-.86.9c-.68-.9-1.53-1.25-2.72-1.25-1.02 0-2.04.35-2.72 1.24-.85.71-1.19 1.78-1.19 3.02s.34 2.3 1.2 3.01c.84.71 1.7 1.25 2.71 1.25 1.2 0 2.04-.36 2.9-1.25a3 3 0 0 0 .85-2.13h-3.75v-1.41h4.94zm7.82-4.44h-4.6v3.37h4.26v1.24h-4.25v3.36h4.6v1.42h-5.96v-10.63h5.95zm5.62 9.4h-1.36v-9.4h-2.9v-1.24h7.16v1.24h-2.9zm7.82-10.64h1.36v10.63h-1.36zm5.78 10.63v-9.4h-2.89v-1.23h6.97v1.24h-2.89v9.4zm13.78.19a4.9 4.9 0 0 1-3.74-1.6 5.34 5.34 0 0 1-1.53-3.9c0-1.6.5-2.84 1.53-3.9a4.9 4.9 0 0 1 3.74-1.6 4.9 4.9 0 0 1 3.73 1.6 5.33 5.33 0 0 1 1.53 3.9c0 1.6-.5 2.84-1.53 3.9a4.9 4.9 0 0 1-3.73 1.6zm0-1.24c1.02 0 2.04-.36 2.72-1.24a4.37 4.37 0 0 0 1.2-3.02c0-1.24-.35-2.3-1.2-3.02a3.94 3.94 0 0 0-2.72-1.24c-1.02 0-2.04.36-2.72 1.24a4.37 4.37 0 0 0-1.2 3.02c0 1.24.35 2.3 1.2 3.02.68.7 1.7 1.24 2.72 1.24zm7.15 1.05v-10.63h1.53l4.93 8.33v-8.33h1.36v10.63h-1.36l-5.27-8.68v8.68z"/><path id="xc3mb" d="M732 500.43h231V436H732z"/><path id="xc3mh" d="M846.78 472.15c4.05 0 7.27 2.85 7.27 7.2 0 4.19-3.22 7.2-7.27 7.2a7.18 7.18 0 0 1-7.27-7.2c0-4.18 3.21-7.2 7.27-7.2zm0 11.4c2.2 0 4.05-1.84 4.05-4.36 0-2.68-1.85-4.36-4.05-4.36-2.2 0-4.06 1.85-4.06 4.36 0 2.52 1.86 4.36 4.06 4.36zm-15.72-11.4c4.06 0 7.27 2.85 7.27 7.2 0 4.19-3.21 7.2-7.27 7.2a7.18 7.18 0 0 1-7.27-7.2c0-4.18 3.21-7.2 7.27-7.2zm0 11.4c2.2 0 4.07-1.84 4.07-4.36 0-2.68-1.87-4.36-4.07-4.36s-4.06 1.85-4.06 4.36c0 2.52 1.86 4.36 4.06 4.36zm-8.28-9.22c.16.5.16 1.17.16 1.84 0 2.18-.67 5.03-2.7 7.03-2.03 2.18-4.4 3.19-7.77 3.19-6.09 0-11.33-5.03-11.33-11.05 0-6.03 5.24-11.05 11.33-11.05 3.38 0 5.74 1.34 7.6 3.01l-2.2 2.18a8.42 8.42 0 0 0-5.57-2.18 7.93 7.93 0 0 0-7.95 8.04 7.83 7.83 0 0 0 7.95 8.03 7.52 7.52 0 0 0 5.57-2.17 6.3 6.3 0 0 0 1.7-3.85h-7.27v-3.02zm66.6 3.18l-9.64 4.02c.84 1.5 1.86 2.18 3.55 2.18 1.69 0 2.7-.84 3.55-2.01l2.36 1.67a6.95 6.95 0 0 1-5.91 3.18 7.04 7.04 0 0 1-7.1-7.2c0-4.35 3.04-7.2 6.76-7.2 3.72 0 5.41 2.85 6.09 4.52zm-3.71-1.17c-.34-.84-1.53-1.5-2.71-1.5-1.53 0-3.73 1.5-3.73 4.2zm-14.38-11.38h3.2v20.92h-3.2zm-5.07 7.53h3.04v12.72c0 5.19-3.04 7.37-6.76 7.37a6.97 6.97 0 0 1-6.43-4.19l2.7-1.17a3.75 3.75 0 0 0 3.56 2.51c2.37 0 3.89-1.5 3.89-4.18v-1h-.17a4.87 4.87 0 0 1-3.72 1.66 6.96 6.96 0 0 1-6.93-7.03c0-4.01 3.38-7.2 6.93-7.2a5.6 5.6 0 0 1 3.89 1.68zm-3.72 11.06c2.2 0 3.9-1.84 3.9-4.36 0-2.51-1.7-4.36-3.9-4.36s-4.06 1.85-4.06 4.36c0 2.52 1.86 4.36 4.06 4.36zm41.24-18.6c3.54 0 6.92 2.52 6.92 6.54 0 4.01-3.38 6.53-6.92 6.53h-4.4v7.86h-3.2v-20.92zm.17 10.06c2.2 0 3.55-1.85 3.72-3.69a3.7 3.7 0 0 0-3.72-3.52h-4.56v7.2zm19.44-3.02c3.55 0 6.42 2.17 6.76 5.86v8.03h-3.04v-1.67h-.17c-.85 1-1.86 2-4.06 2-2.7 0-5.24-1.83-5.24-4.68 0-3.01 3.04-4.69 6.09-4.69 1.35 0 2.7.5 3.2.84v-.17c-.16-1.67-1.68-2.68-3.37-2.68-1.19 0-2.2.34-2.88 1.5l-2.87-1.16c.85-2.18 3.21-3.18 5.58-3.18zm-.34 11.55c1.7 0 3.38-1.34 3.72-3.35-.85-.34-1.52-.67-2.87-.67-1.53 0-3.38.5-3.38 2.18 0 1.34 1.52 1.84 2.53 1.84zm21.13-11.05l-8.62 19.75h-3.21l3.2-7.03-5.57-12.72h3.38l3.72 9.04h.17l3.55-9.04zm-31.78-7.53h3.21v20.92h-3.2z"/><path id="xc3mi" d="M756.25 448.57c-.51.5-.68 1.36-.68 2.38v37.5c0 1.02.34 1.87.85 2.38l.17.17 20.98-21.05v-.34z"/><path id="xc3mj" d="M782.98 476.85l-6.98-6.82v-.5l6.98-6.82.17.17 8.35 4.66c2.38 1.33 2.38 3.49 0 4.82z"/><path id="xc3mk" d="M783.74 477.75l-7.05-7.05-20.96 21c.84.83 2.01.83 3.52.16l24.49-14.1"/><path id="xc3ml" d="M783.86 463.37l-24.73-14.24c-1.53-.85-2.71-.68-3.56.18l21.17 21.26z"/><clipPath id="xc3mc"><use xlink:href="#xc3ma"/></clipPath><clipPath id="xc3me"><use xlink:href="#xc3ma"/></clipPath><clipPath id="xc3mg"><use xlink:href="#xc3mb"/></clipPath></defs><g><g transform="translate(-714 -421)"><g><g/><g clip-path="url(#xc3mc)"><use fill="#fff" xlink:href="#xc3md"/></g></g><g><g/><g clip-path="url(#xc3me)"><use fill="#fff" xlink:href="#xc3md"/></g></g><g><use xlink:href="#xc3mf"/></g><g/><g clip-path="url(#xc3mg)"><use xlink:href="#xc3mh"/></g><g clip-path="url(#xc3mg)"><use xlink:href="#xc3mi"/></g><g clip-path="url(#xc3mg)"><use fill="#fff" fill-opacity="0" stroke="#fff" stroke-miterlimit="50" stroke-width="5.4" xlink:href="#xc3mi"/></g><g clip-path="url(#xc3mg)"><use xlink:href="#xc3mj"/></g><g clip-path="url(#xc3mg)"><use fill="#fff" fill-opacity="0" stroke="#fff" stroke-miterlimit="50" stroke-width="5.4" xlink:href="#xc3mj"/></g><g clip-path="url(#xc3mg)"><g><use xlink:href="#xc3mk"/></g><g><use fill="#fff" fill-opacity="0" stroke="#fff" stroke-miterlimit="50" stroke-width="3.6" xlink:href="#xc3mk"/></g></g><g clip-path="url(#xc3mg)"><use xlink:href="#xc3ml"/></g><g clip-path="url(#xc3mg)"><use fill="#fff" fill-opacity="0" stroke="#fff" stroke-miterlimit="50" stroke-width="3.6" xlink:href="#xc3ml"/></g></g></g></svg>