<svg xmlns="http://www.w3.org/2000/svg" xmlns:xlink="http://www.w3.org/1999/xlink" width="98" height="96" viewBox="0 0 98 96"><defs><path id="zjdsc" d="M378 5299.7a890 890 0 0 1 2.24-1.81 92.58 92.58 0 0 0 4.42-3.72c1.02-.94 1.84-1.91 2.48-2.92.64-1.02.96-2.07.96-3.15 0-1.28-.37-2.27-1.13-2.97a3.99 3.99 0 0 0-2.8-1.04c-1.3 0-2.41.4-3.34 1.18a5.9 5.9 0 0 0-1.85 3.41h-.76c0-.9.04-1.63.13-2.17.08-.54.29-1 .63-1.38a6.77 6.77 0 0 1 2.53-1.52 10 10 0 0 1 3.51-.61c1.74 0 3.27.37 4.58 1.1 1.31.75 1.97 2.08 1.97 4 0 1.14-.35 2.22-1.06 3.25a14.54 14.54 0 0 1-2.58 2.86 70.55 70.55 0 0 1-4.2 3.25l-3.4 2.6h6.96a5 5 0 0 0 2.92-.73c.68-.48 1.01-1.2 1.01-2.13h.7v1.81c0 1.42-.9 2.13-2.68 2.13H378z"/><path id="zjdsd" d="M396.1 5286.96c0-.9-.14-1.58-.43-2.01-.3-.44-.88-.66-1.76-.66h-.54v-.61h8.31c4.11 0 7.23.76 9.37 2.3a7.44 7.44 0 0 1 3.19 6.4c0 1.76-.45 3.31-1.34 4.65a8.67 8.67 0 0 1-3.98 3.14c-1.76.75-3.9 1.12-6.42 1.12h-6.4zm10.44 12.41a7.04 7.04 0 0 0 2.88-2.74 8.06 8.06 0 0 0 1.04-4.14c0-1.55-.34-2.92-1.04-4.11a7.11 7.11 0 0 0-2.88-2.77 8.85 8.85 0 0 0-4.2-.97c-.9 0-1.9.13-2.99.37v15c1.11.21 2.13.32 3.05.32 1.54 0 2.92-.32 4.14-.96z"/><path id="zjdse" d="M419.15 5286.96c0-.9-.15-1.58-.44-2.01-.3-.44-.88-.66-1.76-.66h-.54v-.61h12.72c1.78 0 2.67.71 2.67 2.13v2.09h-.72c0-2.09-1.31-3.13-3.94-3.13h-4.81v7.02h7.05v1.1h-7.05v8.4h-3.18z"/><path id="zjdsf" d="M443.88 5297.96l-.78-1.69h-8.7l-2.54 5.02h-1.48l8.94-17.61h1.07l6.96 14.28c.48.96.97 1.64 1.46 2.04.5.4 1.15.63 1.97.7v.6c-.38.08-.82.12-1.32.12-2.67 0-4.53-1.15-5.58-3.46zm-1.4-2.78l-3.69-7.55-3.88 7.55z"/><path id="zjdsa" d="M451.44 5283.71h14.48V5302h-14.48z"/><path id="zjdsh" d="M454.6 5301.26c-1.16-.5-2.21-1.2-3.16-2.14l.6-.57a8.1 8.1 0 0 0 5.77 2.34c1.35 0 2.46-.37 3.33-1.11.87-.75 1.3-1.84 1.3-3.3 0-.9-.19-1.66-.58-2.28-.38-.63-.89-1.1-1.5-1.41a4.32 4.32 0 0 0-1.98-.47c-.8 0-1.41.02-1.83.08-.42.05-1.04.17-1.86.35l-.79-1.1 8.58-6.84h-5.8c-1.29 0-2.26.24-2.94.73-.67.48-1 1.2-1 2.15H452v-1.83c0-1.43.9-2.15 2.68-2.15h10.22v1.1l-8.3 6.62c.63-.15 1.5-.22 2.62-.22.88 0 1.84.16 2.87.47 1.03.32 1.93.87 2.68 1.66a4.35 4.35 0 0 1 1.14 3.14c0 1.42-.4 2.54-1.2 3.36a6.21 6.21 0 0 1-2.82 1.7 11.58 11.58 0 0 1-7.3-.28"/><path id="zjdsi" d="M463.36 5243.3a3.97 3.97 0 1 1-3.97-3.99 3.97 3.97 0 0 1 3.97 3.98"/><path id="zjdsb" d="M374 5206.14h97.94V5269H374z"/><path id="zjdsk" d="M459.17 5236.63a6.48 6.48 0 0 0-6.4 6.5c0 3.6 2.93 6.52 6.52 6.48l7.6-.14c2.79 0 5.05 2.27 5.05 5.07v6a8.44 8.44 0 0 1-8.42 8.46h-81.1a8.44 8.44 0 0 1-8.42-8.46v-45.94a8.44 8.44 0 0 1 8.42-8.46h81.1a8.44 8.44 0 0 1 8.42 8.46v16.8c0 2.81-2.26 5.08-5.05 5.08zm-66.4-17.9l.86 2.27h1.57l.87-2.28zm4.04 3.94a.77.77 0 0 0-.77-.77h-3.25a.77.77 0 0 0-.76.77v3.25c0 .43.34.77.76.77h3.25c.42 0 .77-.34.77-.77zm-7.95-1.67h3.82l-.87-2.28h-1.16c-.98 0-1.79.8-1.79 1.8zm0 2.85h2.35v-1.73c0-.08.01-.15.03-.22h-2.38zm0 2.85h2.38a1.02 1.02 0 0 1-.03-.22v-1.73h-2.35zm3.82.9h-3.82v.49c0 .98.8 1.79 1.79 1.79h1.16zm3.4 2.28l-.88-2.28h-1.57l-.87 2.28zm3.88-2.28h-3.8l.87 2.28h1.15c.98 0 1.78-.8 1.78-1.8zm.01-2.85h-2.35v1.73c0 .08 0 .15-.02.22h2.37zm0-2.85h-2.37l.02.22v1.73h2.35zm0-1.39c0-.98-.8-1.79-1.79-1.79h-1.15l-.87 2.28h3.8z"/><clipPath id="zjdsg"><use xlink:href="#zjdsa"/></clipPath><clipPath id="zjdsj"><use xlink:href="#zjdsb"/></clipPath></defs><g><g transform="translate(-374 -5206)"><g><g><use fill="#fff" xlink:href="#zjdsc"/></g><g><use fill="#fff" xlink:href="#zjdsd"/></g><g><use fill="#fff" xlink:href="#zjdse"/></g><g><use fill="#fff" xlink:href="#zjdsf"/></g><g><g/><g clip-path="url(#zjdsg)"><use fill="#fff" xlink:href="#zjdsh"/></g></g></g></g><g transform="translate(-374 -5206)"><g><use fill="#fff" xlink:href="#zjdsi"/></g><g><g/><g clip-path="url(#zjdsj)"><use fill="#fff" xlink:href="#zjdsk"/></g></g></g></g></svg>