<svg xmlns="http://www.w3.org/2000/svg" xmlns:xlink="http://www.w3.org/1999/xlink" width="70" height="103" viewBox="0 0 70 103"><defs><path id="ajgya" d="M891.91 2123.962c4.126 0 7.423 3.338 7.423 7.514s-3.297 7.514-7.424 7.514c-4.126 0-7.424-3.338-7.424-7.514s3.298-7.514 7.424-7.514zm.004-4.293c-6.424 0-11.671 5.308-11.671 11.807 0 6.499 5.247 11.807 11.671 11.807 6.425 0 11.672-5.308 11.672-11.807 0-6.499-5.247-11.807-11.672-11.807zm24.39-21.468c-1.17 0-2.122.965-2.122 2.147s.953 2.147 2.121 2.147c1.168 0 2.121-.965 2.121-2.147s-.953-2.147-2.12-2.147zm-2.122-21.467v17.184h4.242v-17.184zm-23.333-6.44h50.909v38.651h-50.91zm-2.122-4.294c-1.168 0-2.12.964-2.12 2.147v42.935c0 1.182.952 2.147 2.12 2.147h25.455v8.998c-1.757.746-3.157 2.272-3.563 4.318v-.017l-2.966 14.416-8.8 4.276h-12.885c-.058-.008-.108 0-.157 0-1.5.118-3.853.378-6 1.879-2.154 1.492-3.81 4.36-3.81 8.42v11.379a2.165 2.165 0 0 0 1.051 1.886 2.12 2.12 0 0 0 2.138 0 2.165 2.165 0 0 0 1.053-1.886v-11.38c0-3.019.886-4.126 1.972-4.889 1.077-.746 2.635-1.023 3.894-1.115h13.224c.315 0 .63-.076.92-.218l10.184-4.94a2.164 2.164 0 0 0 1.16-1.492l3.181-15.455v-.025c.191-.956 1.12-1.526 2.171-1.317.945.193 1.517 1.124 1.31 2.189v.008l-3.605 17.15c0 .008-.008.016-.008.024-.075.37-.812 1.728-1.359 2.172v.009l-8.9 7.069a2.16 2.16 0 0 0-.811 1.685v10.525a2.165 2.165 0 0 0 1.052 1.886 2.12 2.12 0 0 0 2.138 0 2.165 2.165 0 0 0 1.052-1.886v-9.476l8.096-6.44c.008 0 .016-.009.016-.017 1.575-1.267 2.527-2.91 2.875-4.688l3.605-17.149v-.025c.596-3.002-1.094-6.088-3.986-7.044v-8.83h25.455c1.168 0 2.121-.965 2.121-2.147v-42.935c0-1.183-.953-2.147-2.121-2.147z"/><linearGradient id="ajgyb" x1="975.46" x2="882.26" y1="2016.99" y2="2169.07" gradientUnits="userSpaceOnUse"><stop offset="0" stop-color="#3023ae"/><stop offset=".48" stop-color="#53a0fd"/><stop offset="1" stop-color="#b4ec51"/></linearGradient></defs><g><g transform="translate(-876 -2066)"><g><use fill="url(#ajgyb)" xlink:href="#ajgya"/></g></g></g></svg>