<svg xmlns="http://www.w3.org/2000/svg" xmlns:xlink="http://www.w3.org/1999/xlink" width="93" height="94" viewBox="0 0 93 94"><defs><path id="ke8la" d="M597.885 2121.617h-3.579v-14.462h3.579v-3.615H587.15v3.615h3.578v14.462h-3.578v3.615h10.735z"/><path id="ke8lc" d="M622.726 2143.307c-3.09 0-5.164 3.183-5.164 6.157l.045 11.842c-.063.063-.275.105-.345.042l-13.519-12.663c8.303-2.782 15.245-8.558 19.609-16.056l11.491 10.678zm-55.13 18.053c-.038.035-.129.022-.129.062v-11.542c0-2.762-2.258-4.767-5.373-4.767l-12.552.034 12.574-11.79c4.378 7.134 11.12 12.62 19.136 15.315zm23.14-79.422v3.615c-14.318.902-25.86 12.562-26.755 27.023h-3.58c.905-16.27 14.227-29.726 30.335-30.638zm33.902 30.638h-3.58c-.893-14.461-12.437-26.121-26.754-27.023v-3.615c16.107.912 29.43 14.369 30.334 30.638zm-30.334 30.639c14.317-.904 25.861-12.562 26.754-27.023h3.58c-.904 16.269-14.227 29.723-30.334 30.638zm-1.794-54.139c13.809 0 25.042 11.35 25.042 25.303 0 13.952-11.233 25.303-25.042 25.303-13.81 0-25.043-11.35-25.043-25.303 0-13.953 11.235-25.303 25.043-25.303zm-28.529 27.116c.895 14.461 12.437 26.119 26.755 27.023v3.615c-16.108-.915-29.43-14.37-30.334-30.638zm73.927 25.045l-12.842-11.927a36.197 36.197 0 0 0 3.231-14.926c0-19.935-16.052-36.154-35.782-36.154-19.73 0-35.783 16.219-35.783 36.154 0 5.634 1.319 10.95 3.605 15.709l-13.225 12.4c-1.059.986-1.397 2.517-.86 3.901.545 1.42 1.866 2.336 3.36 2.336h12.482c.299 0 1.795.054 1.795 1.15v11.612c0 1.387.807 2.603 2.11 3.182a3.74 3.74 0 0 0 1.523.323c.913 0 1.81-.336 2.498-.978l15.302-14.219c2.324.481 4.73.734 7.194.734 2.453 0 4.849-.253 7.164-.73l15.145 14.187a3.682 3.682 0 0 0 2.553 1.008c.533 0 1.074-.11 1.587-.336 1.342-.588 2.176-1.822 2.176-3.223v-11.976c0-1.087.781-2.542 1.585-2.542h12.665c1.578 0 2.925-.838 3.433-2.138.47-1.206.125-2.562-.916-3.547z"/><path id="ke8le" d="M552.25 2129.477a43.596 43.596 0 0 1-2.67-15.092c0-23.923 19.262-43.385 42.939-43.385s42.939 19.462 42.939 43.385a43.62 43.62 0 0 1-2.67 15.09l-3.354-1.258a40.042 40.042 0 0 0 2.444-13.832c0-21.93-17.657-39.77-39.36-39.77-21.705 0-39.362 17.84-39.362 39.77 0 4.761.823 9.416 2.446 13.836z"/><linearGradient id="ke8lb" x1="602.4" x2="588.11" y1="2093.23" y2="2125.23" gradientUnits="userSpaceOnUse"><stop offset="0" stop-color="#3023ae"/><stop offset=".48" stop-color="#53a0fd"/><stop offset="1" stop-color="#b4ec51"/></linearGradient><linearGradient id="ke8ld" x1="678.18" x2="554.32" y1="2036.97" y2="2165" gradientUnits="userSpaceOnUse"><stop offset="0" stop-color="#3023ae"/><stop offset=".48" stop-color="#53a0fd"/><stop offset="1" stop-color="#b4ec51"/></linearGradient><linearGradient id="ke8lf" x1="671.6" x2="557.26" y1="2043.2" y2="2129.48" gradientUnits="userSpaceOnUse"><stop offset="0" stop-color="#3023ae"/><stop offset=".48" stop-color="#53a0fd"/><stop offset="1" stop-color="#b4ec51"/></linearGradient></defs><g><g transform="translate(-546 -2071)"><g><use fill="url(#ke8lb)" xlink:href="#ke8la"/></g><g><use fill="url(#ke8ld)" xlink:href="#ke8lc"/></g><g><use fill="url(#ke8lf)" xlink:href="#ke8le"/></g></g></g></svg>