<svg xmlns="http://www.w3.org/2000/svg" xmlns:xlink="http://www.w3.org/1999/xlink" width="92" height="85" viewBox="0 0 92 85"><defs><path id="2x75a" d="M1200.73 2102.15v-15.33h3.61v15.33z"/><path id="2x75c" d="M1182.69 2138.23v-43.29h3.61v43.29z"/><path id="2x75e" d="M1182.69 2159.88v-14.43h3.61v14.43z"/><path id="2x75g" d="M1235 2150.86v-10.82h3.61v10.82z"/><path id="2x75i" d="M1200.73 2150.86v-24.35h3.61v24.35z"/><path id="2x75k" d="M1217.86 2159.89v-16.24h3.61v16.24z"/><path id="2x75m" d="M1219.71 2160.784a8.644 8.644 0 0 1-4.947-1.548l-11.235-6.707c-.69-.477-1.486-.477-2.08-.065l-11.282 6.832c-2.847 1.994-6.803 1.996-9.747-.06l-11.635-7.043c-1.474-1.026-2.334-2.646-2.334-4.323v-59.406c0-1.264.66-2.468 1.774-3.051a3.453 3.453 0 0 1 3.592.24l12.386 7.603c.686.474 1.48.472 2.07.06l11.422-6.813c2.837-1.987 6.792-1.99 9.737.067l11.16 6.636-1.753 2.962-11.265-6.704c-1.875-1.303-4.252-1.301-6.02-.067l-11.423 6.814c-1.663 1.162-4.03 1.162-5.796-.067l-12.45-7.68v59.406c.028.563.311 1.117.768 1.436l11.634 7.042c1.861 1.295 4.241 1.298 6.01.06l11.282-6.832c1.673-1.17 4.04-1.171 5.806.06l11.237 6.707c1.87 1.3 4.249 1.303 6.019.065l11.322-6.834c1.669-1.167 4.042-1.169 5.805.062l12.543 7.917v-52.514h3.434v52.3a3.369 3.369 0 0 1-1.808 2.997 3.456 3.456 0 0 1-3.592-.238l-3.87-2.393-8.575-5.181c-.68-.47-1.477-.475-2.07-.062l-11.322 6.834c-1.412.99-3.096 1.488-4.796 1.488z"/><path id="2x75o" d="M1229.59 2097.195a6.765 6.765 0 1 1 13.53 0 6.765 6.765 0 0 1-13.53 0z"/><path id="2x75q" d="M1236.8 2079.488c-9.53 0-17.282 7.822-17.282 17.437 0 8.695 6.55 15.304 11.812 20.614 2.205 2.225 4.158 4.194 5.47 6.098 1.312-1.904 3.265-3.873 5.47-6.098 5.263-5.31 11.813-11.919 11.813-20.614 0-9.615-7.753-17.437-17.283-17.437zm1.734 48.826h-3.458c0-2.068-3.004-5.1-6.187-8.31-5.715-5.764-12.829-12.94-12.829-23.079 0-11.538 9.306-20.925 20.745-20.925 11.44 0 20.745 9.387 20.745 20.925 0 10.139-7.114 17.315-12.829 23.08-3.183 3.21-6.187 6.24-6.187 8.309z"/><linearGradient id="2x75b" x1="1205.85" x2="1201.05" y1="2079.53" y2="2102.16" gradientUnits="userSpaceOnUse"><stop offset="0" stop-color="#3023ae"/><stop offset="0" stop-color="#67b0d9"/><stop offset=".02" stop-color="#53a0fd"/><stop offset="1" stop-color="#b4ec51"/></linearGradient><linearGradient id="2x75d" x1="1187.81" x2="1183.01" y1="2074.35" y2="2138.24" gradientUnits="userSpaceOnUse"><stop offset="0" stop-color="#3023ae"/><stop offset=".02" stop-color="#53a0fd"/><stop offset="0" stop-color="#67b0d9"/><stop offset="1" stop-color="#b4ec51"/></linearGradient><linearGradient id="2x75f" x1="1187.81" x2="1183.01" y1="2138.59" y2="2159.88" gradientUnits="userSpaceOnUse"><stop offset="0" stop-color="#3023ae"/><stop offset=".02" stop-color="#53a0fd"/><stop offset="0" stop-color="#67b0d9"/><stop offset="1" stop-color="#b4ec51"/></linearGradient><linearGradient id="2x75h" x1="1240.13" x2="1235.32" y1="2134.9" y2="2150.86" gradientUnits="userSpaceOnUse"><stop offset="0" stop-color="#3023ae"/><stop offset=".02" stop-color="#53a0fd"/><stop offset="0" stop-color="#67b0d9"/><stop offset="1" stop-color="#b4ec51"/></linearGradient><linearGradient id="2x75j" x1="1205.85" x2="1201.05" y1="2114.93" y2="2150.86" gradientUnits="userSpaceOnUse"><stop offset="0" stop-color="#3023ae"/><stop offset=".02" stop-color="#53a0fd"/><stop offset="0" stop-color="#67b0d9"/><stop offset="1" stop-color="#b4ec51"/></linearGradient><linearGradient id="2x75l" x1="1222.99" x2="1218.18" y1="2135.93" y2="2159.88" gradientUnits="userSpaceOnUse"><stop offset="0" stop-color="#3023ae"/><stop offset=".02" stop-color="#53a0fd"/><stop offset="0" stop-color="#67b0d9"/><stop offset="1" stop-color="#b4ec51"/></linearGradient><linearGradient id="2x75n" x1="1293.33" x2="1174.44" y1="2049" y2="2160.78" gradientUnits="userSpaceOnUse"><stop offset="0" stop-color="#3023ae"/><stop offset=".48" stop-color="#53a0fd"/><stop offset="1" stop-color="#b4ec51"/></linearGradient><linearGradient id="2x75p" x1="1248.81" x2="1230.8" y1="2084" y2="2103.96" gradientUnits="userSpaceOnUse"><stop offset="0" stop-color="#3023ae"/><stop offset=".48" stop-color="#53a0fd"/><stop offset="1" stop-color="#b4ec51"/></linearGradient><linearGradient id="2x75r" x1="1275.01" x2="1219.77" y1="2051.13" y2="2128.31" gradientUnits="userSpaceOnUse"><stop offset="0" stop-color="#3023ae"/><stop offset=".48" stop-color="#53a0fd"/><stop offset="1" stop-color="#b4ec51"/></linearGradient></defs><g><g transform="translate(-1166 -2076)"><g><use fill="url(#2x75b)" xlink:href="#2x75a"/></g><g><use fill="url(#2x75d)" xlink:href="#2x75c"/></g><g><use fill="url(#2x75f)" xlink:href="#2x75e"/></g><g><use fill="url(#2x75h)" xlink:href="#2x75g"/></g><g><use fill="url(#2x75j)" xlink:href="#2x75i"/></g><g><use fill="url(#2x75l)" xlink:href="#2x75k"/></g><g><use fill="url(#2x75n)" xlink:href="#2x75m"/></g><g><use fill="url(#2x75p)" xlink:href="#2x75o"/></g><g><use fill="url(#2x75r)" xlink:href="#2x75q"/></g></g></g></svg>