<svg xmlns="http://www.w3.org/2000/svg" xmlns:xlink="http://www.w3.org/1999/xlink" width="79" height="94" viewBox="0 0 79 94"><defs><path id="3iwia" d="M234.852 2101.73c0-.997.8-1.807 1.785-1.807h3.57c.986 0 1.786.81 1.786 1.808v1.807h-7.141zm5.355-16.268c0-5.982 4.804-10.847 10.711-10.847 5.908 0 10.712 4.865 10.712 10.847v10.846c-2.953 0-5.356 2.433-5.356 5.423v1.807h-10.711v-1.807c0-2.99-2.403-5.423-5.356-5.423zm26.788 16.269v1.807h-7.15v-1.807c0-.998.8-1.808 1.787-1.808h3.575c.987 0 1.788.81 1.788 1.808zm-46.425 47v-36.154c0-2.99 2.403-5.423 5.356-5.423h49.985c2.953 0 5.355 2.433 5.355 5.423v21.692h3.57v-21.692c0-4.984-4.003-9.039-8.925-9.039h-5.356v-1.807c0-2.99-2.402-5.423-5.355-5.423v-10.846c0-7.974-6.407-14.462-14.282-14.462-7.874 0-14.281 6.488-14.281 14.462v10.846c-2.953 0-5.356 2.433-5.356 5.423v1.807h-5.355c-4.922 0-8.926 4.055-8.926 9.039v36.154c0 4.984 4.004 9.038 8.926 9.038h41.06v-3.615h-41.06c-2.953 0-5.356-2.433-5.356-5.423z"/><path id="3iwic" d="M286.247 2141.84l-8.576 8.684-4.986-4.9-2.485 2.595 7.51 7.38 11.061-11.201z"/><path id="3iwie" d="M225.93 2150.54v-3.62h39.27v3.62z"/><path id="3iwig" d="M229.5 2130.65c0-1.993 1.602-3.615 3.57-3.615 1.97 0 3.571 1.622 3.571 3.616s-1.601 3.615-3.57 3.615c-1.97 0-3.57-1.621-3.57-3.615zm10.711 0c0-3.987-3.202-7.23-7.14-7.23-3.938 0-7.141 3.243-7.141 7.23 0 3.989 3.203 7.232 7.14 7.232 3.939 0 7.141-3.243 7.141-7.231z"/><path id="3iwii" d="M250.92 2134.266c-1.968 0-3.57-1.621-3.57-3.615 0-1.994 1.602-3.616 3.57-3.616 1.97 0 3.571 1.622 3.571 3.616s-1.601 3.615-3.57 3.615zm0-10.846c-3.937 0-7.14 3.243-7.14 7.23 0 3.989 3.203 7.232 7.14 7.232 3.939 0 7.141-3.243 7.141-7.231s-3.202-7.231-7.14-7.231z"/><path id="3iwik" d="M268.77 2134.266c-1.968 0-3.57-1.621-3.57-3.615 0-1.994 1.602-3.616 3.57-3.616 1.97 0 3.571 1.622 3.571 3.616s-1.601 3.615-3.57 3.615zm7.141-3.615c0-3.988-3.202-7.231-7.14-7.231-3.938 0-7.141 3.243-7.141 7.23 0 3.989 3.203 7.232 7.14 7.232 3.939 0 7.141-3.243 7.141-7.231z"/><path id="3iwim" d="M279.477 2136.075c-6.889 0-12.496 5.676-12.496 12.65 0 6.972 5.607 12.648 12.496 12.648 6.888 0 12.495-5.676 12.495-12.649 0-6.973-5.607-12.649-12.495-12.649zm0 28.923c-8.86 0-16.067-7.297-16.067-16.269 0-8.971 7.207-16.269 16.067-16.269s16.066 7.298 16.066 16.27c0 8.97-7.207 16.268-16.066 16.268z"/><linearGradient id="3iwib" x1="313.39" x2="223.07" y1="2029.74" y2="2157.77" gradientUnits="userSpaceOnUse"><stop offset="0" stop-color="#3023ae"/><stop offset=".48" stop-color="#53a0fd"/><stop offset="1" stop-color="#b4ec51"/></linearGradient><linearGradient id="3iwid" x1="296.59" x2="271.86" y1="2135.3" y2="2155.6" gradientUnits="userSpaceOnUse"><stop offset="0" stop-color="#3023ae"/><stop offset=".48" stop-color="#53a0fd"/><stop offset="1" stop-color="#b4ec51"/></linearGradient><linearGradient id="3iwif" x1="281.73" x2="229.44" y1="2145.2" y2="2150.54" gradientUnits="userSpaceOnUse"><stop offset="0" stop-color="#3023ae"/><stop offset=".48" stop-color="#53a0fd"/><stop offset="1" stop-color="#b4ec51"/></linearGradient><linearGradient id="3iwih" x1="246.22" x2="227.21" y1="2116.54" y2="2137.88" gradientUnits="userSpaceOnUse"><stop offset="0" stop-color="#3023ae"/><stop offset=".48" stop-color="#53a0fd"/><stop offset="1" stop-color="#b4ec51"/></linearGradient><linearGradient id="3iwij" x1="264.07" x2="245.06" y1="2116.54" y2="2137.88" gradientUnits="userSpaceOnUse"><stop offset="0" stop-color="#3023ae"/><stop offset=".48" stop-color="#53a0fd"/><stop offset="1" stop-color="#b4ec51"/></linearGradient><linearGradient id="3iwil" x1="281.92" x2="262.91" y1="2116.54" y2="2137.88" gradientUnits="userSpaceOnUse"><stop offset="0" stop-color="#3023ae"/><stop offset=".48" stop-color="#53a0fd"/><stop offset="1" stop-color="#b4ec51"/></linearGradient><linearGradient id="3iwin" x1="309.08" x2="266.29" y1="2116.99" y2="2165" gradientUnits="userSpaceOnUse"><stop offset="0" stop-color="#3023ae"/><stop offset=".48" stop-color="#53a0fd"/><stop offset="1" stop-color="#b4ec51"/></linearGradient></defs><g><g transform="translate(-217 -2071)"><g><use fill="url(#3iwib)" xlink:href="#3iwia"/></g><g><use fill="url(#3iwid)" xlink:href="#3iwic"/></g><g><use fill="url(#3iwif)" xlink:href="#3iwie"/></g><g><use fill="url(#3iwih)" xlink:href="#3iwig"/></g><g><use fill="url(#3iwij)" xlink:href="#3iwii"/></g><g><use fill="url(#3iwil)" xlink:href="#3iwik"/></g><g><use fill="url(#3iwin)" xlink:href="#3iwim"/></g></g></g></svg>